<?xml version="1.0" standalone="no"?>
<!DOCTYPE svg PUBLIC "-//W3C//DTD SVG 20010904//EN"
 "http://www.w3.org/TR/2001/REC-SVG-20010904/DTD/svg10.dtd">
<svg version="1.0" xmlns="http://www.w3.org/2000/svg"
 width="169.000000pt" height="162.000000pt" viewBox="0 0 169.000000 162.000000"
 preserveAspectRatio="xMidYMid meet">

<g transform="translate(0.000000,162.000000) scale(0.100000,-0.100000)"
fill="#000000" stroke="none">
<path d="M904 1061 c-21 -15 -47 -38 -58 -49 -10 -12 -39 -28 -65 -37 -35 -11
-60 -30 -99 -75 -62 -70 -121 -113 -200 -145 -73 -30 -155 -76 -147 -83 3 -3
38 11 78 32 39 21 97 47 127 59 58 21 189 130 208 172 8 16 30 29 78 44 97 30
108 29 100 -13 -4 -19 -3 -37 2 -40 5 -3 30 1 57 9 81 25 83 20 20 -52 -51
-59 -55 -75 -20 -91 14 -7 27 -23 30 -39 4 -15 8 -38 11 -50 2 -13 14 -25 27
-27 47 -10 234 -56 250 -62 28 -11 19 9 -42 94 -32 45 -64 96 -71 114 -8 18
-26 47 -41 64 -14 18 -32 55 -39 82 -16 70 -32 81 -60 42 -12 -16 -26 -28 -31
-24 -5 3 -21 28 -34 55 -14 27 -29 49 -34 49 -4 0 -26 -13 -47 -29z"/>
<path d="M585 661 c-33 -4 -94 -14 -135 -22 l-75 -14 160 -6 c184 -7 218 -15
375 -95 l105 -53 65 16 c36 9 69 19 73 23 7 6 -85 48 -228 103 -94 37 97 3
249 -44 93 -28 106 -30 146 -19 l45 12 -40 14 c-50 17 -180 49 -282 70 -88 18
-367 27 -458 15z"/>
</g>
</svg>
